 <svg  version="1.0" xmlns="http://www.w3.org/2000/svg"  width="300.000000pt" height="300.000000pt" viewBox="0 0 300.000000 300.000000"  preserveAspectRatio="xMidYMid meet">  <g transform="translate(0.000000,300.000000) scale(0.100000,-0.100000)" fill="#000000" stroke="none"> <path d="M1312 2893 c-21 -8 -44 -62 -36 -86 10 -36 45 -67 74 -67 55 0 104 66 81 109 -18 32 -85 58 -119 44z m98 -55 c0 -11 -8 -27 -17 -34 -21 -16 -63 -18 -63 -4 0 6 -4 10 -10 10 -17 0 -11 -19 10 -30 16 -8 28 -8 50 3 23 12 28 12 23 1 -13 -35 -82 -28 -102 10 -17 31 -6 63 27 80 23 12 31 12 54 0 17 -9 28 -23 28 -36z"/> <path d="M246 2876 c4 -10 -5 -16 -25 -21 -65 -14 -111 -88 -96 -155 9 -40 56 -89 94 -96 16 -4 32 -14 34 -23 4 -13 5 -13 6 -1 1 8 19 22 41 32 77 32 106 135 55 197 -14 16 -41 35 -60 41 -19 6 -35 18 -35 26 0 8 -4 14 -10 14 -5 0 -7 -6 -4 -14z m71 -52 c62 -40 70 -123 16 -175 -35 -33 -73 -47 -73 -25 0 8 9 17 20 21 29 9 60 54 60 87 0 44 -16 66 -58 78 -51 16 -89 0 -108 -45 -8 -19 -21 -35 -29 -35 -18 0 -18 -1 -4 38 10 28 40 56 79 74 21 9 70 0 97 -18z m-5 -46 c35 -54 6 -111 -60 -116 -32 -2 -43 1 -56 20 -29 41 -15 102 27 117 25 10 77 -3 89 -21z m-137 -89 c9 -17 29 -35 46 -41 29 -10 41 -38 15 -38 -25 0 -80 45 -93 78 -11 27 -11 32 2 32 8 0 22 -14 30 -31z"/> <path d="M1718 2853 c46 -2 118 -2 160 0 42 1 5 3 -83 3 -88 0 -123 -2 -77 -3z"/> <path d="M1137 2823 c-4 -3 -7 -17 -7 -30 0 -18 6 -23 24 -23 33 0 53 25 36 45 -13 16 -42 20 -53 8z"/> <path d="M941 2785 c-11 -15 -21 -36 -21 -46 0 -28 49 -79 76 -79 34 0 74 42 74 78 0 36 -24 58 -71 67 -32 6 -39 3 -58 -20z m93 -1 c27 -11 21 -71 -10 -91 -24 -15 -29 -15 -53 -2 -48 27 -35 99 19 99 15 0 35 -3 44 -6z"/> <path d="M960 2714 c16 -19 72 -15 78 6 4 12 2 13 -9 3 -16 -15 -59 -17 -59 -3 0 6 -5 10 -11 10 -8 0 -7 -5 1 -16z"/> <path d="M668 2763 c34 -2 90 -2 125 0 34 2 6 3 -63 3 -69 0 -97 -1 -62 -3z"/> <path d="M2257 2744 c-4 -4 -7 -34 -7 -66 0 -41 4 -60 14 -64 11 -4 12 -13 6 -35 -11 -37 -1 -37 35 1 l29 30 128 0 c145 0 143 -1 136 91 l-3 44 -166 3 c-91 1 -168 -1 -172 -4z m263 -41 c-108 -7 -230 -7 -230 0 0 4 62 6 138 5 75 -1 117 -3 92 -5z m40 -31 c0 -4 -61 -8 -135 -7 -74 0 -135 3 -135 8 0 4 61 7 135 7 74 0 135 -4 135 -8z m0 -32 c0 -6 -52 -10 -135 -10 -83 0 -135 4 -135 10 0 6 52 10 135 10 83 0 135 -4 135 -10z"/> <path d="M668 2733 c34 -2 90 -2 125 0 34 2 6 3 -63 3 -69 0 -97 -1 -62 -3z"/> <path d="M1835 2731 c-24 -10 -34 -47 -22 -84 5 -15 7 -30 5 -33 -3 -2 -52 3 -109 11 -109 17 -285 18 -307 2 -6 -5 -26 -7 -43 -3 -21 4 -28 2 -23 -6 5 -8 -3 -9 -30 -5 -24 4 -34 2 -30 -5 4 -7 -4 -8 -26 -3 -21 5 -30 4 -26 -3 6 -10 -69 -33 -132 -40 -7 -1 -10 -7 -6 -14 5 -8 2 -9 -9 -5 -10 3 -17 2 -17 -4 0 -6 -4 -8 -9 -5 -14 9 -42 -5 -34 -17 3 -6 1 -7 -5 -3 -16 9 -134 -61 -224 -132 -198 -158 -361 -403 -397 -598 -5 -25 -15 -52 -24 -62 -22 -26 -41 -207 -33 -324 8 -110 12 -128 32 -128 35 0 55 -74 33 -122 -8 -19 -5 -38 16 -93 101 -269 345 -539 605 -670 89 -45 265 -103 348 -115 99 -14 268 -12 366 5 390 68 701 301 882 660 100 200 145 458 115 666 -13 92 -31 161 -43 169 -4 3 -9 17 -10 30 -2 14 -6 27 -9 30 -3 3 -25 48 -48 100 -24 52 -57 118 -73 145 -17 28 -31 56 -31 63 0 6 -2 10 -5 8 -2 -3 -21 16 -42 42 -61 77 -205 209 -281 258 -74 48 -171 95 -254 124 -66 22 -66 43 0 50 41 4 52 10 62 30 16 35 6 77 -20 84 -31 8 -118 6 -142 -3z m38 -57 c-3 -8 -9 -14 -13 -14 -14 0 -22 20 -16 37 5 12 9 13 21 3 7 -6 11 -18 8 -26z m51 18 c8 -13 -11 -35 -23 -28 -16 10 -14 36 3 36 8 0 17 -4 20 -8z m-83 -96 c-26 -27 -27 -40 -3 -28 20 11 23 10 122 -30 177 -72 254 -123 395 -262 47 -46 56 -61 43 -64 -11 -2 -38 16 -71 47 -78 76 -200 164 -282 204 -73 36 -203 79 -285 94 -29 6 -45 14 -45 23 0 11 14 15 56 16 61 1 83 9 73 26 -5 7 -2 8 5 3 9 -5 7 -13 -8 -29z m-201 -5 c27 -10 63 -30 79 -43 17 -15 54 -30 91 -37 72 -14 242 -74 279 -98 36 -23 158 -120 206 -164 22 -20 56 -41 75 -48 73 -23 128 -85 156 -176 6 -22 17 -39 23 -38 32 8 139 -256 141 -346 l0 -24 -19 25 c-11 13 -27 53 -36 89 -19 71 -85 229 -97 229 -16 0 -7 -52 15 -98 13 -26 32 -72 42 -102 10 -30 30 -82 46 -115 40 -87 45 -133 21 -213 -26 -86 -45 -220 -42 -299 2 -103 -53 -198 -142 -244 l-38 -19 0 -71 c0 -63 2 -70 15 -59 13 11 14 10 9 -4 -3 -9 -10 -16 -15 -16 -14 0 -62 57 -86 103 -15 29 -22 36 -23 22 -2 -77 -69 -170 -145 -201 -29 -12 -45 -25 -45 -36 0 -15 9 -12 48 17 26 18 73 59 105 90 58 55 91 66 86 28 -2 -10 3 -29 10 -42 11 -19 11 -25 0 -32 -22 -13 -30 -11 -36 11 -8 28 -18 25 -57 -18 -25 -28 -135 -112 -153 -117 -1 0 -4 -12 -8 -28 -10 -39 9 -34 34 9 12 20 24 34 27 31 3 -3 29 17 57 44 29 27 57 49 64 49 6 0 13 5 15 10 2 7 10 6 21 -2 17 -13 14 -18 -35 -66 -70 -68 -154 -131 -187 -138 -14 -4 -39 -17 -56 -29 -79 -58 -259 -118 -410 -136 -276 -34 -550 36 -793 204 -73 50 -91 83 -44 81 17 0 19 2 11 13 -6 7 -16 10 -21 7 -16 -10 -28 17 -28 66 0 45 0 45 -49 63 -71 25 -159 131 -164 197 -1 10 -4 17 -7 15 -7 -5 -42 63 -77 150 -13 33 -35 110 -47 170 -20 97 -64 215 -66 175 0 -9 6 -24 13 -35 14 -20 42 -143 34 -151 -2 -2 -19 11 -39 29 -32 30 -37 40 -43 102 -11 102 9 296 39 375 57 150 111 260 128 260 16 0 8 -41 -31 -157 -36 -109 -60 -205 -48 -193 3 3 21 50 40 105 19 55 42 116 50 135 8 19 15 55 16 78 2 94 77 195 165 225 26 9 71 37 99 61 199 173 180 162 334 210 60 19 124 37 143 41 19 4 50 20 70 36 74 59 186 75 280 40z m-280 -18 c0 -7 -12 -15 -27 -19 -140 -32 -252 -71 -328 -115 -67 -39 -177 -120 -232 -171 -51 -48 -83 -61 -83 -34 0 30 179 176 294 240 134 75 376 139 376 99z m1343 -1206 c-6 -80 -31 -205 -44 -212 -19 -12 -20 25 -4 129 15 107 32 159 46 151 4 -3 5 -33 2 -68z m-2165 -393 c16 -32 27 -65 25 -72 -6 -15 40 -97 76 -135 14 -15 47 -41 72 -58 26 -16 51 -38 55 -47 12 -28 16 -82 5 -82 -17 0 -161 164 -156 178 3 7 1 11 -4 8 -20 -13 -128 170 -182 306 -17 43 -18 56 -8 80 6 15 16 25 21 22 6 -4 8 6 4 27 -4 19 9 -11 28 -67 19 -55 47 -127 64 -160z m2006 -120 c-31 -56 -64 -95 -74 -89 -14 9 9 80 31 95 12 8 31 25 43 37 31 32 31 13 0 -43z"/> <path d="M1255 2456 c-29 -12 -29 -13 -8 -20 l22 -7 -21 -21 c-21 -21 -21 -22 -2 -28 16 -6 21 0 31 39 6 25 11 47 10 48 -1 0 -15 -4 -32 -11z"/> <path d="M1780 2464 c1 -23 18 -35 43 -28 27 6 37 24 15 24 -7 0 -23 3 -35 6 -13 4 -23 2 -23 -2z"/> <path d="M1510 2444 c71 -8 78 -13 96 -59 9 -25 24 -50 33 -55 14 -8 14 -9 -4 -15 -11 -4 -27 -10 -35 -14 -9 -5 -36 -12 -60 -16 -25 -4 -50 -12 -57 -17 -7 -6 -14 -5 -20 4 -4 7 -17 18 -28 24 -15 8 -21 23 -23 63 -2 31 1 51 7 51 6 0 11 -15 11 -34 0 -19 6 -36 13 -38 22 -9 110 1 121 13 6 7 7 10 1 7 -9 -4 -60 40 -59 52 0 3 13 8 30 11 16 4 -5 6 -47 4 -42 -1 -81 -5 -88 -9 -14 -9 -15 -75 -1 -110 6 -16 17 -26 30 -26 15 0 20 -7 20 -26 l0 -25 29 20 c18 13 45 21 70 21 23 0 49 4 59 9 9 5 25 12 35 15 39 12 44 98 7 131 -13 12 -41 18 -97 20 -43 1 -62 1 -43 -1z"/> <path d="M1160 2430 c0 -5 14 -10 31 -10 17 0 28 4 24 10 -3 6 -17 10 -31 10 -13 0 -24 -4 -24 -10z"/> <path d="M1843 2390 c-24 -10 -43 -22 -43 -25 0 -3 15 2 33 11 17 10 61 21 97 24 l65 7 -55 1 c-35 1 -70 -5 -97 -18z"/> <path d="M1213 2358 c3 -17 -163 -24 -173 -8 -8 12 -69 -40 -64 -55 2 -5 0 -53 -4 -105 -7 -82 -10 -92 -20 -70 -6 15 -11 19 -11 9 -2 -29 56 -96 101 -118 26 -12 64 -21 91 -21 58 0 62 14 5 17 -54 4 -103 20 -119 40 -12 13 -1 15 97 12 127 -4 154 6 174 66 11 33 13 35 26 18 12 -16 15 -16 25 -3 9 12 10 12 5 -4 -8 -23 13 -39 31 -24 16 13 18 -5 3 -32 -9 -16 -6 -17 25 -10 49 11 73 2 90 -31 22 -42 19 -49 -25 -49 -50 0 -148 -32 -201 -66 -22 -13 -44 -22 -49 -19 -6 4 -10 -3 -10 -15 0 -20 1 -20 38 5 79 54 304 96 411 75 67 -12 142 -52 175 -90 l26 -32 0 51 c0 50 -1 51 -40 67 -49 20 -132 110 -128 139 2 13 10 20 24 19 16 0 20 4 16 18 -2 10 0 18 5 18 16 0 66 102 73 147 4 23 3 40 -2 37 -4 -3 -8 -19 -8 -35 0 -72 -93 -179 -175 -201 -34 -9 -45 -17 -45 -33 -1 -11 -9 -36 -19 -55 l-19 -34 -21 34 c-11 19 -21 44 -21 56 0 16 -10 23 -52 33 -95 25 -178 128 -178 222 0 26 -16 39 -46 39 -8 0 -13 -6 -11 -12z m41 -70 c7 -33 14 -177 9 -182 -2 -2 -25 18 -50 45 l-46 50 43 44 c58 59 42 58 -27 -2 l-55 -46 -56 56 -57 57 117 0 c114 0 118 -1 122 -22z m-164 -86 c-1 -11 -80 -96 -85 -90 -2 2 -2 44 2 92 l6 88 39 -41 c21 -23 38 -45 38 -49z m109 -56 c22 -22 38 -43 35 -47 -4 -8 -214 -10 -214 -2 0 2 19 23 43 46 54 55 83 55 136 3z m476 -74 c6 -4 16 -18 23 -32 18 -35 44 -64 67 -78 11 -6 15 -12 9 -12 -6 0 -22 9 -36 19 -14 11 -55 25 -91 32 -37 7 -67 15 -67 19 0 3 10 18 22 33 21 26 52 34 73 19z"/> <path d="M1865 2321 c-39 -22 -65 -75 -65 -131 1 -52 10 -67 64 -104 46 -31 92 -33 144 -7 85 43 116 148 62 206 -50 55 -144 71 -205 36z m155 -16 c66 -34 81 -111 31 -167 -25 -29 -35 -32 -95 -36 -64 -4 -67 -3 -101 31 -29 29 -35 42 -35 77 0 51 12 75 48 94 35 20 115 20 152 1z"/> <path d="M1870 2210 c0 -15 5 -20 18 -18 9 2 17 10 17 18 0 8 -8 16 -17 18 -13 2 -18 -3 -18 -18z"/> <path d="M1937 2224 c-14 -14 -7 -35 11 -32 9 2 17 10 17 17 0 16 -18 25 -28 15z"/> <path d="M1995 2220 c-8 -14 3 -30 21 -30 8 0 14 9 14 20 0 21 -24 28 -35 10z"/> <path d="M885 2281 c-8 -17 -25 -37 -37 -45 -18 -13 -19 -16 -5 -16 20 0 23 -30 5 -48 -9 -9 -7 -12 11 -12 13 0 20 4 16 11 -4 6 -4 26 -1 44 5 24 11 32 21 28 18 -6 20 -46 4 -72 -9 -14 -8 -27 6 -59 10 -23 22 -39 26 -36 4 2 10 -4 14 -15 3 -11 25 -35 49 -55 62 -51 185 -68 216 -30 9 10 5 11 -26 2 -44 -12 -102 -4 -148 18 -80 41 -119 108 -114 195 2 33 0 59 -4 59 -4 0 -5 7 -2 15 4 8 10 13 14 10 4 -3 11 2 14 11 3 8 2 12 -4 9 -6 -3 -10 -1 -10 4 0 22 -30 10 -45 -18z"/> <path d="M2203 2245 c4 -9 7 -19 7 -21 0 -2 9 -4 21 -4 23 0 17 15 -13 31 -18 10 -20 9 -15 -6z"/> <path d="M865 2114 c18 -43 18 -44 5 -44 -5 0 -10 8 -10 18 0 14 -4 13 -19 -7 -16 -21 -21 -22 -42 -11 -39 21 -78 14 -110 -19 -25 -27 -29 -38 -29 -89 0 -48 4 -62 23 -80 30 -28 70 -42 121 -42 53 0 108 38 133 93 19 41 25 44 43 22 7 -8 16 -13 20 -10 5 3 11 1 15 -5 3 -5 15 -10 26 -10 27 0 24 -28 -10 -81 -39 -60 -77 -94 -134 -119 -45 -20 -47 -23 -33 -39 16 -17 60 -111 54 -114 -1 -1 -13 -7 -24 -14 -20 -11 -22 -8 -33 28 -16 54 -79 115 -133 130 -56 15 -128 6 -178 -22 -22 -13 -38 -24 -36 -26 2 -2 20 6 39 17 117 69 278 6 303 -118 6 -28 4 -31 -14 -27 -11 2 -30 13 -41 24 -12 12 -25 21 -31 21 -5 0 -12 11 -16 24 -3 14 -14 32 -24 41 -27 25 -63 12 -101 -35 -23 -28 -40 -40 -58 -40 -15 0 -37 -7 -49 -16 -19 -13 -22 -24 -22 -86 0 -65 -1 -69 -17 -57 -14 12 -14 8 3 -21 31 -55 93 -92 160 -98 41 -3 55 -2 50 7 -4 6 -23 11 -43 11 -34 0 -103 26 -103 39 0 3 9 12 20 19 16 10 24 10 43 -1 34 -22 121 -22 158 0 24 13 33 15 36 5 3 -6 9 -10 14 -7 5 4 6 -1 3 -9 -3 -8 -24 -27 -46 -43 -34 -23 -53 -28 -112 -31 -59 -2 -77 1 -110 20 -54 32 -93 83 -110 148 -8 30 -15 47 -15 36 -2 -34 22 -100 50 -142 34 -49 109 -86 172 -84 23 1 45 1 50 1 4 -1 -11 -18 -34 -38 -22 -20 -46 -50 -53 -67 l-14 -31 -21 45 c-20 44 -21 44 -16 11 5 -45 -11 -26 -20 23 -6 36 -5 38 9 27 13 -11 16 -11 16 3 0 9 -6 16 -14 16 -7 0 -19 7 -26 15 -7 9 -27 26 -44 38 l-31 21 33 -37 c20 -24 32 -48 32 -67 0 -31 46 -178 61 -195 5 -5 9 0 9 13 0 60 72 157 144 194 25 13 65 22 104 24 40 2 68 8 75 17 21 25 61 47 85 47 20 0 23 4 18 23 -3 12 -6 25 -6 30 0 4 -9 -2 -20 -13 -31 -31 -109 -28 -141 6 -51 54 -21 153 52 169 25 6 29 13 40 63 6 31 20 80 30 108 20 53 113 194 128 194 12 0 41 -35 41 -50 0 -7 3 -10 7 -7 3 4 17 -3 30 -15 30 -28 36 -20 28 36 -8 48 -25 54 -25 8 l-1 -27 -33 36 c-24 26 -46 39 -75 44 -47 8 -118 52 -147 92 -11 15 -29 49 -39 76 -10 26 -22 47 -26 47 -5 0 -2 -16 6 -36z m-24 -64 c9 0 32 -12 49 -26 27 -23 31 -32 28 -67 -4 -59 -39 -82 -124 -82 -60 0 -68 3 -90 28 -34 39 -33 99 2 134 22 22 31 25 71 19 25 -3 54 -6 64 -6z m95 -356 c-3 -9 -6 -20 -6 -25 0 -5 -7 -9 -15 -9 -18 0 -20 36 -2 43 23 10 29 7 23 -9z m-216 -75 c0 -11 -7 -31 -16 -44 l-16 -25 50 0 c54 0 75 -15 48 -35 -15 -11 -15 -13 0 -26 15 -12 14 -15 -4 -30 -15 -11 -18 -19 -10 -27 21 -21 -4 -32 -76 -32 -43 0 -77 5 -84 12 -7 7 -12 34 -12 60 0 42 6 58 42 106 23 31 46 60 52 64 15 10 26 0 26 -23z m-130 -111 c0 -26 -4 -38 -8 -30 -7 10 -12 8 -26 -7 -15 -16 -15 -19 -1 -24 8 -4 15 -13 15 -21 0 -17 -37 -28 -47 -14 -3 7 -1 8 5 4 7 -4 12 -1 12 9 0 9 -4 13 -10 10 -6 -4 -10 17 -10 54 l0 61 35 0 c35 0 35 -1 35 -42z m257 -173 c7 -20 -24 -44 -49 -37 -18 4 -18 6 3 28 26 28 37 30 46 9z"/> <path d="M2195 2103 c-32 -82 -110 -151 -190 -166 -19 -3 -52 -27 -86 -61 l-56 -56 32 0 c34 0 55 -22 94 -98 12 -23 26 -42 31 -42 5 0 6 -7 3 -17 -4 -11 -3 -14 6 -9 9 6 10 0 5 -20 -4 -17 -3 -25 3 -21 12 8 23 -47 23 -119 0 -72 -35 -200 -71 -259 -55 -91 -127 -157 -223 -204 -80 -40 -96 -44 -182 -49 -71 -4 -98 -1 -111 9 -10 8 -4 -3 14 -23 17 -20 36 -44 41 -54 9 -16 13 -15 58 2 57 22 186 26 206 6 9 -9 9 -12 0 -12 -7 0 -12 -7 -12 -15 0 -8 -6 -15 -12 -15 -8 0 -9 -3 -3 -8 6 -4 8 -22 4 -42 -3 -19 -7 -29 -8 -22 -1 16 -43 16 -63 0 -8 -7 -24 -27 -36 -44 -35 -51 -91 -25 -75 35 5 18 35 40 63 44 8 2 24 8 35 15 18 11 17 12 -10 6 -16 -3 -49 -12 -72 -21 -43 -15 -43 -15 -43 -65 0 -80 -19 -128 -75 -185 -49 -50 -116 -82 -179 -84 -12 0 -34 -17 -51 -37 -16 -20 -22 -31 -13 -24 14 11 26 11 70 -3 58 -17 378 -48 436 -42 22 2 9 4 -30 5 -39 1 -68 6 -68 12 0 7 22 8 63 3 89 -10 99 -8 147 23 60 41 77 50 149 81 58 24 64 25 73 10 5 -9 14 -17 19 -17 6 0 -4 20 -22 45 -25 35 -42 47 -81 59 -27 8 -63 24 -81 36 -49 34 -98 104 -104 150 -3 22 -9 40 -13 40 -11 0 14 110 33 146 47 90 134 138 249 139 42 0 74 3 71 8 -2 4 -13 7 -24 7 -25 0 -24 13 3 69 18 37 19 46 7 50 -8 2 -29 19 -46 37 -24 23 -33 41 -33 66 0 43 30 91 66 107 25 10 29 17 30 56 2 58 45 146 91 184 l35 29 -33 7 c-46 10 -88 32 -121 63 -16 14 -28 21 -28 15 0 -18 70 -71 102 -78 16 -4 28 -13 28 -22 0 -12 -7 -14 -32 -9 -59 12 -141 95 -167 170 -10 27 -9 28 14 24 19 -4 25 0 27 16 3 16 7 11 17 -19 20 -59 55 -100 106 -125 37 -18 56 -21 107 -16 102 9 147 6 199 -14 27 -10 49 -17 49 -16 0 10 -33 96 -37 96 -3 0 -13 -10 -23 -22 -12 -16 -29 -22 -58 -23 l-41 -1 29 33 c59 66 62 155 9 238 -35 56 -91 84 -165 85 l-51 0 -18 -47z m122 25 c40 -14 44 -31 6 -22 -16 4 -29 8 -31 9 -2 2 -17 -1 -33 -5 -31 -9 -37 -2 -17 18 15 15 33 15 75 0z m4 -58 c84 -23 114 -99 64 -159 -29 -33 -84 -56 -115 -46 -12 4 -27 1 -35 -5 -12 -10 -15 -9 -15 3 0 9 -13 29 -30 45 -63 63 -15 153 90 171 3 1 21 -4 41 -9z m-176 -147 c9 -21 28 -50 42 -66 19 -19 24 -30 16 -38 -14 -14 -63 28 -88 74 -16 30 -17 38 -6 51 18 22 19 21 36 -21z m-71 -143 c37 -71 66 -168 66 -222 0 -24 -8 -42 -24 -58 l-25 -23 -5 24 c-3 13 -8 46 -11 72 -10 73 -41 155 -87 225 l-42 64 25 19 c24 19 24 19 46 -9 13 -15 38 -56 57 -92z m356 111 c0 -18 -45 -64 -74 -76 -17 -7 -52 -16 -78 -20 -45 -7 -48 -6 -48 14 0 12 6 21 13 20 51 -6 89 4 129 35 45 36 58 42 58 27z m-260 -207 c0 -8 -7 -14 -15 -14 -10 0 -15 10 -15 26 0 22 2 25 15 14 8 -7 15 -19 15 -26z m-85 -444 c-10 -33 -55 -80 -76 -80 -26 0 -24 10 17 80 35 58 37 60 51 40 8 -11 11 -29 8 -40z m9 -61 c-26 -28 -30 -14 -8 27 17 31 19 33 22 14 2 -12 -4 -30 -14 -41z m-284 -182 c0 -14 -60 -47 -85 -47 -8 0 -15 5 -15 10 0 6 7 10 15 10 8 0 15 4 15 9 0 5 12 14 28 19 37 14 42 14 42 -1z m-56 -213 c3 -8 -1 -28 -9 -43 -18 -35 -13 -40 34 -34 26 4 41 0 50 -11 11 -13 11 -17 -2 -22 -13 -5 -14 -9 -4 -25 10 -17 9 -22 -5 -33 -11 -8 -13 -17 -7 -28 13 -24 -17 -38 -82 -38 -69 0 -89 18 -89 78 0 37 8 58 42 109 42 64 61 76 72 47z m-124 -107 c0 -22 -7 -36 -21 -45 -11 -7 -27 -27 -35 -45 -13 -31 -14 -29 -12 46 l1 77 33 0 c32 0 34 -2 34 -33z m270 -56 c0 -14 2 -14 10 -1 6 10 10 11 10 3 0 -7 12 -13 26 -13 24 0 25 -3 19 -27 -3 -16 -18 -43 -32 -61 -19 -26 -28 -31 -38 -22 -8 6 -11 19 -8 28 3 9 -4 5 -15 -10 -51 -61 -184 -89 -266 -54 -42 17 -116 83 -116 103 0 8 4 12 9 8 5 -3 12 4 16 15 10 33 32 24 27 -11 -3 -23 -8 -29 -20 -24 -30 11 32 -46 70 -66 90 -46 185 -33 252 34 30 30 32 33 6 11 -19 -18 -45 -37 -57 -43 -32 -16 -139 -14 -174 4 -27 14 -28 17 -14 31 8 9 15 20 15 26 0 7 12 1 26 -13 20 -18 38 -24 77 -25 64 -2 105 17 113 54 12 49 33 82 49 76 8 -4 15 -14 15 -23z m119 -44 c13 -16 5 -28 -15 -20 -8 3 -14 0 -14 -6 0 -6 -4 -11 -10 -11 -11 0 -14 33 -3 43 10 11 30 8 42 -6z m-481 -87 c29 -27 61 -50 71 -50 11 0 23 -5 27 -11 5 -9 -4 -10 -32 -4 -43 7 -118 57 -142 93 -28 43 21 25 76 -28z m-40 -42 c-7 -4 -22 -5 -33 -3 -11 2 -46 7 -77 10 -32 4 -58 10 -58 15 0 8 49 29 84 37 11 2 22 6 25 8 2 3 20 -9 38 -27 23 -23 29 -34 21 -40z"/> <path d="M2217 1975 c-8 -18 11 -31 25 -17 11 11 3 32 -12 32 -4 0 -10 -7 -13 -15z"/> <path d="M2326 1982 c-2 -4 -1 -14 4 -22 7 -11 12 -12 21 -3 6 6 8 16 5 22 -8 13 -23 14 -30 3z"/> <path d="M1795 2061 c24 -27 87 -61 112 -60 12 0 9 3 -8 8 -36 12 -70 30 -99 55 l-25 21 20 -24z"/> <path d="M1350 2036 c-6 -8 -17 -13 -24 -10 -7 3 -19 -2 -26 -11 -10 -12 -10 -15 1 -15 8 0 -8 -13 -35 -28 -60 -33 -78 -64 -20 -34 35 18 137 112 122 112 -3 0 -11 -6 -18 -14z"/> <path d="M1470 1860 c-76 -9 -140 -40 -200 -96 -162 -152 -155 -411 17 -550 77 -63 150 -88 253 -88 155 1 275 75 342 212 30 61 33 75 32 157 0 109 -21 159 -100 245 -88 95 -208 136 -344 120z m196 -44 c167 -68 261 -265 202 -424 -34 -92 -109 -176 -196 -219 -45 -22 -66 -26 -132 -25 -143 2 -265 74 -324 190 -85 167 -2 387 179 473 81 38 184 40 271 5z"/> <path d="M1414 1751 c-180 -85 -220 -318 -77 -453 78 -74 231 -97 327 -48 94 48 166 159 166 256 0 47 -34 132 -70 176 -17 20 -58 50 -92 67 -84 43 -167 43 -254 2z m241 -5 c28 -12 69 -44 92 -69 199 -217 -65 -545 -332 -412 -217 109 -198 409 32 491 61 21 150 17 208 -10z"/> <path d="M1660 1714 c56 -32 78 -51 101 -89 11 -16 19 -25 19 -18 0 30 -115 133 -149 133 -9 0 4 -12 29 -26z"/> <path d="M1440 1659 c-14 -5 -42 -28 -62 -50 -29 -31 -38 -50 -39 -77 -2 -67 3 -86 31 -122 15 -19 30 -48 34 -63 9 -37 30 -44 72 -23 19 9 53 16 75 16 50 0 107 29 147 75 25 28 32 45 32 79 0 57 -21 104 -62 141 -31 28 -39 30 -118 32 -47 2 -96 -2 -110 -8z m180 -32 c47 -16 80 -68 80 -124 0 -35 -6 -50 -34 -80 -32 -35 -38 -37 -104 -41 -53 -3 -75 -9 -88 -23 -27 -30 -44 -24 -44 15 0 25 -6 38 -24 49 -13 9 -29 32 -36 51 -10 30 -8 42 9 81 16 36 29 50 63 65 49 22 125 25 178 7z"/> <path d="M1580 1504 c0 -9 7 -14 17 -12 25 5 28 28 4 28 -12 0 -21 -6 -21 -16z"/> <path d="M551 1800 c-14 -47 -14 -53 1 -44 6 4 24 10 39 13 l28 6 -29 31 -28 32 -11 -38z"/> <path d="M1106 1810 c-13 -14 -29 -35 -35 -47 -10 -19 -9 -22 5 -16 15 6 15 4 1 -18 -19 -29 -43 -117 -51 -184 -9 -67 8 -38 23 42 15 79 34 126 75 183 48 68 49 69 26 67 -11 -1 -31 -13 -44 -27z"/> <path d="M493 1716 c-15 -13 -25 -27 -21 -31 7 -8 68 34 68 47 0 15 -18 8 -47 -16z"/> <path d="M2349 1648 c-35 -14 -66 -64 -74 -121 -6 -42 -8 -46 -25 -37 -10 5 -21 22 -23 37 -4 26 -4 26 -6 -4 -1 -26 4 -35 28 -47 34 -18 65 -78 57 -111 -3 -13 -2 -26 3 -29 5 -3 9 0 8 7 0 6 1 23 2 37 l2 25 15 -27 c12 -23 18 -26 37 -18 12 5 38 11 58 14 36 6 95 57 118 103 54 106 -78 219 -200 171z m157 -42 c28 -28 34 -42 34 -76 0 -36 -6 -48 -39 -81 -29 -29 -47 -39 -70 -39 -18 0 -44 -8 -58 -17 -26 -17 -26 -17 -20 6 4 17 -2 34 -22 60 -35 45 -43 74 -29 113 15 41 62 68 122 68 41 0 53 -5 82 -34z"/> <path d="M2366 1554 c-7 -18 4 -42 33 -68 21 -19 21 -19 51 12 16 18 30 39 30 47 0 21 -29 31 -51 16 -12 -7 -19 -7 -19 -1 0 16 -37 11 -44 -6z"/> <path d="M996 1610 c-5 -19 -13 -41 -19 -48 -8 -10 -7 -16 4 -22 11 -7 16 0 22 33 9 53 3 84 -7 37z"/> <path d="M387 1518 c-3 -23 -3 -48 1 -54 4 -7 8 12 9 42 3 64 -2 71 -10 12z"/> <path d="M960 1494 c-14 -8 -34 -12 -45 -10 -18 5 -55 -18 -55 -35 0 -20 31 -38 53 -30 13 5 30 5 39 0 11 -6 19 -5 23 1 10 15 35 12 35 -5 0 -8 4 -15 8 -15 4 0 14 -21 21 -47 8 -27 16 -41 18 -31 2 9 -3 33 -11 53 -9 21 -16 52 -16 70 0 18 -8 39 -18 48 -21 19 -19 19 -52 1z m-40 -46 c0 -15 -32 -21 -40 -7 -13 20 9 43 26 28 8 -6 14 -16 14 -21z m66 -7 c-10 -16 -36 -13 -43 5 -8 22 18 37 36 20 7 -8 10 -19 7 -25z"/> <path d="M2026 1429 c-2 -8 -9 -34 -16 -59 -18 -67 -57 -138 -108 -200 -42 -51 -43 -53 -8 -20 58 54 103 130 125 210 12 41 19 76 16 78 -2 3 -6 -1 -9 -9z"/> <path d="M2115 1410 c-35 -39 -5 -92 41 -72 18 9 29 9 43 0 15 -9 24 -8 45 5 27 18 33 41 17 66 -14 22 -126 23 -146 1z m50 -30 c0 -33 -40 -41 -50 -11 -9 28 2 43 28 39 16 -2 22 -10 22 -28z m85 15 c10 -12 10 -18 0 -30 -7 -8 -18 -15 -25 -15 -19 0 -38 28 -31 45 7 19 40 19 56 0z"/> <path d="M2342 1318 c7 -4 40 -7 73 -7 73 1 62 6 -23 11 -34 3 -57 1 -50 -4z"/> <path d="M2555 1290 c-16 -11 -42 -22 -56 -25 -16 -4 -29 -15 -33 -28 -9 -33 -7 -57 4 -57 6 0 10 8 10 18 0 17 16 29 71 52 16 7 29 21 32 36 2 13 4 24 3 24 0 0 -14 -9 -31 -20z"/> <path d="M2247 1282 c-15 -9 -27 -21 -27 -26 0 -5 -16 -24 -36 -43 -20 -19 -33 -37 -30 -41 4 -3 11 0 16 7 6 11 9 10 13 -5 4 -17 5 -17 6 2 0 11 17 35 36 54 30 29 38 33 53 22 9 -7 28 -17 42 -24 37 -18 80 -60 80 -79 0 -16 27 -46 34 -38 2 2 6 20 10 39 4 23 3 30 -3 21 -13 -20 -36 0 -53 45 -10 27 -20 36 -50 44 -20 6 -43 17 -51 24 -11 12 -18 11 -40 -2z"/> <path d="M1085 1264 c17 -33 20 -95 5 -110 -7 -7 -3 -28 15 -65 13 -30 25 -59 25 -66 0 -9 7 -8 28 2 63 33 95 44 106 39 6 -3 -5 6 -24 22 -65 51 -130 126 -130 149 0 12 -9 30 -20 40 -21 19 -21 19 -5 -11z m107 -148 c29 -25 47 -46 40 -46 -17 0 -122 103 -122 120 0 9 6 7 15 -7 8 -12 39 -42 67 -67z m-15 -29 c23 -27 21 -37 -8 -37 -17 0 -69 63 -69 83 0 13 53 -19 77 -46z"/> <path d="M980 1253 c0 -5 5 -14 11 -20 13 -13 4 -33 -16 -33 -21 0 -28 19 -14 36 10 12 9 13 -5 8 -20 -8 -21 -37 -2 -53 9 -8 21 -8 39 -2 17 7 28 7 32 1 11 -18 32 -11 43 14 9 20 7 27 -8 41 -16 15 -22 15 -35 5 -12 -10 -18 -10 -30 0 -8 7 -15 8 -15 3z m80 -34 c0 -14 -5 -19 -17 -17 -26 5 -29 38 -4 38 15 0 21 -6 21 -21z"/> <path d="M894 1188 c3 -26 -2 -39 -22 -58 -56 -53 -88 -96 -84 -109 3 -10 0 -12 -12 -8 -10 4 -16 1 -16 -8 0 -8 -7 -15 -15 -15 -17 0 -20 -16 -5 -25 12 -7 4 -25 -11 -25 -12 0 -11 37 2 62 9 17 8 19 -8 16 -15 -3 -19 -16 -24 -88 -5 -75 -4 -87 12 -103 11 -9 14 -12 9 -5 -16 19 -12 30 8 24 24 -8 47 19 51 59 4 43 11 45 11 4 0 -51 17 -66 81 -72 52 -5 59 -3 82 21 43 47 60 91 54 142 -6 49 10 86 49 114 10 8 16 17 13 20 -12 12 -40 -7 -56 -37 -15 -29 -16 -30 -29 -12 -8 10 -14 24 -14 30 0 6 -13 21 -30 33 -16 13 -30 31 -30 42 0 10 -4 22 -10 25 -6 4 -8 -7 -6 -27z m16 -115 c-8 -15 -16 -31 -18 -35 -2 -5 19 -8 47 -8 44 0 51 -3 51 -20 0 -11 -5 -20 -10 -20 -6 0 -5 -8 2 -19 9 -15 9 -23 -3 -37 -8 -9 -14 -27 -14 -38 0 -19 -7 -21 -68 -24 -42 -2 -74 2 -83 9 -15 12 -21 134 -6 141 4 2 25 27 46 56 35 48 40 52 54 38 14 -13 14 -19 2 -43z"/> <path d="M2260 1145 c-6 -19 -13 -35 -15 -35 -12 0 -55 25 -55 32 0 4 -4 8 -10 8 -22 0 -8 -28 20 -40 47 -19 108 -87 127 -141 18 -51 34 -59 78 -38 15 7 13 8 -12 3 -28 -5 -34 -2 -47 24 -8 16 -12 32 -9 36 11 10 58 7 71 -6 16 -16 29 -1 16 20 -6 9 -24 18 -40 20 -51 5 -82 23 -98 57 -19 40 -20 67 -4 83 8 8 9 12 1 12 -6 0 -17 -16 -23 -35z"/> <path d="M2488 1122 c-4 -18 -19 -43 -33 -56 -25 -23 -33 -46 -16 -46 18 0 62 81 59 108 -3 26 -3 26 -10 -6z"/> <path d="M2050 1084 c8 -1 36 -5 62 -9 26 -3 64 -17 85 -31 l38 -25 -28 25 c-31 29 -86 46 -137 45 -19 -1 -28 -3 -20 -5z"/> <path d="M1993 1000 c-51 -30 -67 -74 -64 -169 1 -25 10 -42 37 -66 65 -59 151 -56 211 8 56 60 66 132 27 193 -34 51 -152 70 -211 34z m142 -4 c43 -18 75 -69 75 -120 0 -31 -7 -45 -39 -77 -34 -35 -44 -39 -87 -39 -82 0 -137 51 -137 125 0 49 20 83 66 107 40 21 77 22 122 4z"/> <path d="M2003 894 c-8 -21 13 -42 28 -27 13 13 5 43 -11 43 -6 0 -13 -7 -17 -16z"/> <path d="M2060 885 c0 -26 24 -35 32 -12 7 18 -2 37 -18 37 -8 0 -14 -10 -14 -25z"/> <path d="M2113 894 c-7 -18 11 -39 26 -30 17 11 13 46 -4 46 -9 0 -18 -7 -22 -16z"/> <path d="M1248 993 c17 -2 47 -2 65 0 17 2 3 4 -33 4 -36 0 -50 -2 -32 -4z"/> <path d="M2246 976 c9 -15 20 -55 24 -89 7 -61 7 -61 9 -14 1 49 -18 109 -39 122 -7 4 -4 -5 6 -19z"/> <path d="M1312 953 c-28 -20 -75 -87 -90 -128 -6 -17 -11 -23 -11 -12 -1 13 -10 17 -41 17 l-40 0 0 -70 c0 -66 2 -71 26 -82 20 -9 30 -9 46 1 21 13 30 8 41 -23 2 -5 30 -11 62 -12 50 -3 63 0 84 19 44 41 72 138 50 178 -5 10 -22 20 -39 24 -22 5 -30 12 -30 29 0 23 -21 76 -30 75 -3 0 -15 -7 -28 -16z m36 -45 c2 -13 -4 -31 -12 -38 -27 -22 -18 -30 34 -30 37 0 52 -4 57 -16 3 -9 0 -20 -8 -25 -12 -8 -12 -11 1 -19 13 -8 13 -11 1 -19 -7 -5 -10 -14 -7 -20 4 -6 1 -14 -7 -17 -9 -3 -13 -13 -10 -25 5 -17 0 -19 -69 -19 -44 0 -79 5 -86 12 -15 15 -16 124 -2 133 6 4 26 31 45 61 37 58 58 65 63 22z m-161 -97 c10 9 13 5 13 -20 0 -20 -5 -31 -14 -31 -8 0 -17 -8 -21 -17 -6 -14 -10 -11 -16 17 -10 43 -4 69 13 52 8 -8 15 -9 25 -1z"/> <path d="M1873 875 c0 -33 2 -45 4 -27 2 18 2 45 0 60 -2 15 -4 0 -4 -33z"/> <path d="M630 917 c-1 -17 40 -84 70 -114 35 -36 107 -64 159 -62 31 1 29 3 -14 9 -92 13 -152 55 -193 135 -12 22 -21 36 -22 32z"/> <path d="M1010 868 c0 -7 -7 -26 -15 -41 -10 -19 -10 -26 -2 -22 7 4 1 -3 -12 -14 -18 -16 -20 -21 -7 -21 9 0 16 -8 16 -20 0 -15 -11 -23 -46 -32 -38 -11 -75 -41 -62 -53 34 -31 169 -117 220 -140 45 -20 68 -37 71 -50 2 -11 5 -2 5 20 1 37 -2 41 -41 60 -48 24 -101 94 -118 158 -6 24 -9 70 -6 105 4 34 4 62 2 62 -3 0 -5 -6 -5 -12z m4 -211 c9 -23 16 -46 16 -50 0 -16 -28 -5 -63 27 -35 31 -37 35 -22 50 29 28 51 19 69 -27z"/> <path d="M828 773 c17 -2 47 -2 65 0 17 2 3 4 -33 4 -36 0 -50 -2 -32 -4z"/> <path d="M1108 665 c42 -64 103 -96 179 -94 l48 2 -60 7 c-74 8 -113 28 -155 77 -22 27 -26 29 -12 8z"/> <path d="M840 616 c0 -10 142 -108 210 -145 41 -22 88 -52 104 -65 21 -19 33 -23 46 -16 11 6 36 4 73 -6 83 -21 243 -44 312 -44 33 1 96 8 140 16 44 9 90 16 102 16 13 0 20 4 17 9 -3 5 2 9 11 9 9 0 14 -4 10 -10 -7 -12 92 17 127 38 15 9 24 20 21 25 -3 5 3 6 14 3 13 -4 25 0 33 9 7 9 25 15 38 13 27 -3 37 9 23 30 -6 11 -28 4 -102 -33 -81 -39 -90 -48 -29 -27 40 14 -2 -9 -50 -27 -63 -24 -89 -27 -45 -5 17 8 22 12 12 9 -177 -49 -179 -50 -352 -49 -147 1 -182 4 -262 25 -62 17 -96 22 -103 15 -7 -7 -10 -5 -10 5 -1 8 -38 32 -88 56 -48 23 -122 66 -165 97 -74 53 -87 61 -87 52z"/> <path d="M1380 340 c25 -8 107 -13 99 -6 -2 2 -31 6 -64 9 -37 3 -51 2 -35 -3z"/> <path d="M451 1137 c-2 -40 32 -130 60 -160 l30 -32 -25 50 c-14 28 -34 75 -45 105 -11 30 -20 47 -20 37z"/> <path d="M2070 2725 c-15 -18 -6 -45 14 -45 22 0 38 34 24 48 -16 16 -23 15 -38 -3z"/> <path d="M1370 2700 c-63 -10 -144 -26 -180 -36 -89 -23 -273 -111 -367 -176 -161 -110 -340 -319 -423 -494 -45 -96 -57 -134 -41 -134 6 0 11 5 11 11 0 18 60 148 93 203 88 145 249 319 373 403 180 123 392 194 634 215 19 2 34 7 33 13 -2 15 -9 14 -133 -5z"/> <path d="M1580 2712 c0 -10 99 -23 159 -21 l36 1 -35 8 c-63 14 -160 21 -160 12z"/> <path d="M493 2655 c-49 -21 -95 -105 -58 -105 8 0 15 9 15 19 0 21 53 71 76 71 15 0 19 16 6 24 -4 2 -22 -2 -39 -9z"/> <path d="M550 2657 c0 -6 15 -19 33 -27 27 -13 47 -37 60 -74 2 -5 9 -6 15 -2 14 8 -5 51 -34 78 -28 25 -74 41 -74 25z"/> <path d="M737 2632 c-35 -38 -7 -102 44 -102 39 0 66 79 37 108 -18 18 -63 14 -81 -6z m71 -4 c22 -22 14 -67 -13 -80 -46 -21 -86 40 -49 76 18 19 45 21 62 4z"/> <path d="M750 2615 c-20 -25 -8 -50 25 -50 21 0 31 5 33 18 4 21 -14 47 -33 47 -7 0 -18 -7 -25 -15z m46 -34 c-9 -14 -33 -14 -41 -1 -4 6 -1 18 6 26 11 13 14 13 27 0 8 -8 11 -19 8 -25z"/> <path d="M492 2597 c-67 -72 34 -172 103 -102 14 13 25 36 25 50 0 35 -42 75 -78 75 -17 0 -37 -9 -50 -23z m86 -19 c28 -28 7 -78 -33 -78 -27 0 -45 18 -45 47 0 36 52 57 78 31z"/> <path d="M2093 2566 c229 -115 418 -298 531 -516 55 -105 76 -138 56 -86 -5 14 -13 33 -19 43 -5 10 -24 47 -41 83 -61 126 -190 271 -340 384 -67 50 -251 146 -279 146 -9 0 33 -25 92 -54z"/> <path d="M2705 2596 c-20 -15 -15 -43 10 -52 18 -7 45 12 45 32 0 22 -35 35 -55 20z"/> <path d="M2796 2597 c-24 -17 -17 -51 11 -55 30 -4 49 31 27 52 -19 19 -16 19 -38 3z"/> <path d="M2880 2595 c-19 -23 -8 -50 20 -50 16 0 26 6 28 18 4 18 -14 47 -28 47 -4 0 -13 -7 -20 -15z"/> <path d="M420 2534 c0 -3 7 -21 16 -40 16 -34 58 -64 89 -64 25 0 17 14 -18 30 -18 8 -39 29 -47 47 -13 28 -40 46 -40 27z"/> <path d="M632 2510 c-7 -19 -24 -36 -46 -47 -46 -21 -50 -47 -6 -32 35 13 80 63 80 90 0 29 -17 23 -28 -11z"/> <path d="M2361 2521 c-15 -27 11 -60 35 -45 27 16 27 30 0 48 -24 15 -26 15 -35 -3z"/> <path d="M275 2496 c-30 -46 17 -102 65 -76 29 15 36 56 15 80 -25 27 -61 25 -80 -4z m70 -16 c7 -23 -10 -50 -31 -50 -21 0 -38 38 -23 56 17 21 47 17 54 -6z"/> <path d="M2500 2500 c-45 -45 -33 -111 24 -139 56 -26 127 34 112 95 -7 26 -63 64 -95 64 -11 0 -30 -9 -41 -20z m107 -27 c16 -21 6 -63 -19 -85 -25 -22 -26 -22 -65 2 -37 22 -43 52 -17 89 14 19 22 22 53 16 20 -3 42 -13 48 -22z"/> <path d="M2510 2421 c0 -6 12 -17 26 -23 28 -13 54 -3 62 23 4 10 0 9 -15 -3 -24 -22 -32 -22 -55 -1 -11 10 -18 12 -18 4z"/> <path d="M2680 2445 c-20 -24 -5 -46 30 -43 16 1 30 6 30 11 0 5 8 3 17 -4 10 -8 14 -9 10 -2 -4 6 -3 14 3 18 5 3 10 0 10 -8 0 -17 19 -26 38 -20 17 6 15 52 -3 59 -8 4 -22 1 -29 -5 -10 -8 -16 -9 -21 -1 -11 18 -34 11 -37 -12 -2 -13 -11 -24 -21 -26 -14 -3 -18 1 -15 15 2 10 10 17 16 16 7 -2 12 2 12 7 0 15 -26 12 -40 -5z"/> <path d="M2841 2433 c-1 -27 3 -33 19 -33 14 0 20 7 21 23 l1 22 6 -22 c7 -21 8 -22 30 -4 21 15 22 19 8 30 -20 17 -56 5 -56 -20 0 -29 -18 -23 -23 9 -4 25 -4 25 -6 -5z"/> <path d="M2664 2366 c-11 -28 1 -51 26 -53 l25 -3 -23 10 c-27 11 -26 46 1 44 9 -1 17 2 17 7 0 15 -40 10 -46 -5z"/> <path d="M2722 2345 c0 -22 2 -32 5 -22 6 21 29 22 37 1 5 -13 9 -14 21 -4 12 10 18 10 30 0 12 -10 13 -7 5 22 -6 18 -10 35 -10 37 0 3 -6 -1 -12 -7 -10 -10 -10 -15 2 -23 13 -9 12 -10 -2 -5 -10 3 -18 -1 -21 -12 -3 -9 -6 -1 -7 18 -1 19 -4 27 -7 18 -2 -10 -11 -18 -18 -18 -7 0 -16 8 -18 18 -3 9 -5 -1 -5 -23z"/> <path d="M2827 2372 c6 -4 13 -21 16 -37 l4 -30 2 32 c0 21 7 33 19 36 9 3 1 5 -18 6 -19 0 -30 -3 -23 -7z"/> <path d="M482 2348 c-15 -15 -16 -55 -1 -63 16 -11 56 3 63 21 7 18 -19 54 -39 54 -6 0 -16 -5 -23 -12z"/> <path d="M202 2318 c-83 -89 -22 -215 96 -199 8 1 21 -4 30 -12 39 -33 45 -32 39 5 -3 22 0 43 7 54 22 32 26 66 12 99 -16 38 -61 75 -90 74 -15 0 -11 -4 14 -12 21 -7 42 -25 54 -46 18 -32 18 -35 3 -80 -10 -25 -17 -54 -17 -63 0 -14 -7 -16 -37 -11 -101 14 -133 39 -133 106 0 31 7 46 34 73 19 19 28 34 22 34 -7 0 -22 -10 -34 -22z"/> <path d="M2723 2273 c42 -2 112 -2 155 0 42 1 7 3 -78 3 -85 0 -120 -2 -77 -3z"/> <path d="M2723 2233 c43 -2 110 -2 150 0 40 1 5 3 -78 3 -82 0 -115 -2 -72 -3z"/> <path d="M2723 2203 c43 -2 110 -2 150 0 40 1 5 3 -78 3 -82 0 -115 -2 -72 -3z"/> <path d="M2735 2105 c-28 -27 -32 -63 -10 -104 16 -32 33 -41 76 -41 45 0 79 39 79 90 0 35 -4 43 -32 60 -45 27 -84 25 -113 -5z m107 -12 c24 -22 23 -52 -4 -80 -42 -44 -98 -20 -98 42 0 52 61 75 102 38z"/> <path d="M2770 2035 c0 -9 9 -15 24 -15 33 0 42 16 13 24 -33 9 -37 8 -37 -9z"/> <path d="M164 2005 c-14 -21 -15 -31 -6 -51 7 -13 19 -27 27 -30 27 -11 65 6 76 33 23 61 -61 103 -97 48z m70 2 c21 -16 18 -45 -6 -61 -35 -22 -74 27 -48 59 15 18 31 19 54 2z"/> <path d="M2783 1879 c-59 -17 -84 -110 -43 -162 12 -15 20 -40 20 -63 l0 -38 33 32 c19 18 43 32 57 32 36 0 89 36 101 67 18 47 4 86 -43 116 -44 28 -71 32 -125 16z m116 -35 c2 -2 -25 -4 -60 -4 -45 0 -60 3 -49 10 13 9 98 4 109 -6z m16 -34 c-3 -5 -37 -10 -75 -10 -38 0 -72 5 -75 10 -4 6 23 10 75 10 52 0 79 -4 75 -10z m-132 -65 c12 -3 44 -6 71 -7 45 -3 48 -4 34 -18 -8 -9 -34 -22 -58 -30 -41 -13 -43 -13 -61 11 -24 31 -33 64 -23 86 6 15 8 13 12 -9 2 -19 11 -30 25 -33z m137 25 c0 -6 -32 -10 -75 -10 -43 0 -75 4 -75 10 0 6 32 10 75 10 43 0 75 -4 75 -10z"/> <path d="M209 1851 c-56 -56 -26 -159 52 -175 28 -5 31 -9 25 -33 -20 -89 -18 -373 4 -373 4 0 5 60 2 133 -5 143 10 272 34 285 9 5 -2 8 -28 9 -26 1 -49 9 -61 21 -19 19 -18 19 32 21 66 1 88 13 96 53 7 28 4 36 -26 60 -45 38 -91 38 -130 -1z m126 -67 c0 -15 -8 -20 -43 -22 -41 -3 -72 10 -72 29 0 7 79 18 105 14 6 -1 10 -10 10 -21z"/> <path d="M124 1530 c0 -102 2 -143 3 -92 2 50 2 134 0 185 -1 50 -3 9 -3 -93z"/> <path d="M160 1508 c0 -122 4 -178 10 -168 13 20 13 350 0 350 -6 0 -10 -67 -10 -182z"/> <path d="M214 1495 c0 -82 2 -115 3 -72 2 43 2 110 0 150 -1 40 -3 5 -3 -78z"/> <path d="M2882 1598 c-30 -30 3 -77 40 -57 30 16 16 69 -17 69 -6 0 -16 -5 -23 -12z"/> <path d="M2829 1441 c-54 -55 -34 -144 39 -166 30 -9 29 13 -1 24 -59 23 -68 90 -16 133 l32 27 38 -20 c44 -22 57 -55 39 -98 -6 -16 -22 -34 -36 -41 -13 -8 -24 -17 -24 -22 0 -21 63 27 76 58 18 44 10 77 -28 109 -40 34 -82 33 -119 -4z"/> <path d="M2856 1419 c-29 -23 -35 -69 -13 -88 26 -21 73 -24 90 -6 52 52 -20 139 -77 94z m68 -15 c22 -21 20 -40 -5 -65 -18 -18 -23 -19 -42 -6 -29 19 -34 57 -11 74 23 17 39 16 58 -3z"/> <path d="M104 1246 c-3 -7 -4 -40 -2 -72 l3 -59 114 -5 114 -5 17 -50 c19 -55 62 -145 106 -222 155 -267 429 -487 724 -581 132 -42 360 -76 360 -53 0 4 -39 11 -87 15 -155 12 -360 74 -493 148 -265 148 -485 402 -590 683 -23 63 -28 70 -55 73 -17 1 -41 6 -55 9 -21 6 -19 8 20 13 35 6 25 7 -47 8 -117 2 -125 21 -10 24 45 1 92 1 105 0 12 0 22 3 22 9 0 5 -48 10 -107 11 l-108 2 93 3 c122 5 120 23 -4 23 -61 0 -93 4 -89 10 3 6 49 10 103 10 66 0 92 3 82 10 -24 16 -210 13 -216 -4z"/> <path d="M2815 1158 c-4 -24 -2 -54 4 -68 8 -21 10 -13 10 43 1 76 -5 87 -14 25z"/> <path d="M2853 1135 c0 -38 2 -53 4 -32 2 20 2 52 0 70 -2 17 -4 1 -4 -38z"/> <path d="M2883 1140 c6 -83 17 -88 17 -7 0 39 -4 67 -10 67 -6 0 -9 -24 -7 -60z"/> <path d="M2920 1134 c0 -39 4 -63 10 -59 11 7 9 125 -2 125 -5 0 -8 -30 -8 -66z"/> <path d="M2958 1153 c5 -83 9 -90 11 -20 0 37 -2 67 -7 67 -4 0 -6 -21 -4 -47z"/> <path d="M2805 1015 c-38 -19 -65 -51 -65 -76 0 -28 13 -23 32 11 25 44 57 56 112 40 28 -8 46 -19 49 -31 3 -10 1 -17 -4 -13 -5 3 -9 0 -9 -6 0 -6 7 -13 15 -17 52 -19 15 64 -39 88 -50 23 -53 23 -91 4z"/> <path d="M176 994 c-38 -39 -36 -93 5 -128 41 -35 83 -34 120 3 41 42 39 80 -6 120 -45 39 -83 40 -119 5z m102 -62 c2 -15 -2 -22 -12 -22 -11 0 -16 9 -16 26 0 31 23 28 28 -4z m-53 -2 c0 -8 -8 -16 -17 -18 -13 -2 -18 3 -18 18 0 15 5 20 18 18 9 -2 17 -10 17 -18z"/> <path d="M2863 962 c15 -9 27 -20 27 -25 0 -4 -4 -6 -9 -2 -5 3 -12 1 -16 -5 -6 -9 8 -15 29 -11 4 1 5 -11 2 -26 -5 -21 -4 -24 4 -13 26 39 -2 100 -46 100 -16 0 -14 -4 9 -18z"/> <path d="M2740 891 c0 -25 56 -81 81 -81 30 0 22 24 -11 37 -17 6 -34 23 -40 37 -11 30 -30 35 -30 7z"/> <path d="M2921 876 c-12 -19 -33 -37 -46 -40 -22 -6 -37 -36 -17 -36 30 0 102 73 102 105 0 16 -21 1 -39 -29z"/> <path d="M2822 864 c11 -11 23 -14 35 -9 17 7 17 8 -2 15 -11 5 -27 9 -35 9 -12 1 -11 -2 2 -15z"/> <path d="M338 829 c-34 -19 -12 -89 27 -89 20 0 45 28 45 50 0 10 -10 26 -22 34 -26 19 -27 19 -50 5z m50 -46 c-2 -10 -12 -18 -23 -18 -11 0 -21 8 -23 18 -3 13 3 17 23 17 20 0 26 -4 23 -17z"/> <path d="M2564 715 c-8 -20 4 -35 27 -35 21 0 25 15 7 26 -7 4 -8 3 -4 -4 4 -7 3 -12 -3 -12 -21 0 -21 21 1 29 l23 10 -23 0 c-12 1 -25 -6 -28 -14z"/> <path d="M2628 723 c6 -2 12 -9 12 -14 0 -6 -4 -7 -10 -4 -5 3 -10 0 -10 -8 0 -7 7 -14 15 -14 9 0 15 10 15 24 0 16 -6 23 -17 22 -11 0 -13 -3 -5 -6z"/> <path d="M2664 715 c-9 -22 6 -37 29 -31 12 3 27 0 34 -6 10 -8 15 -4 22 13 9 22 10 22 11 4 1 -11 4 -14 7 -7 2 6 11 12 20 12 25 0 8 25 -20 28 -22 3 -27 -1 -27 -17 0 -12 -4 -21 -10 -21 -5 0 -10 10 -10 22 l0 22 -16 -22 c-18 -26 -34 -29 -34 -6 0 10 6 14 15 10 8 -3 15 -1 15 4 0 16 -30 12 -36 -5z"/> <path d="M2823 719 c-17 -17 -4 -39 21 -38 16 1 17 2 4 6 -10 2 -18 11 -18 18 0 7 8 16 18 18 13 4 13 5 2 6 -9 0 -21 -4 -27 -10z"/> <path d="M2870 705 c0 -23 3 -27 10 -15 7 10 13 11 18 5 4 -6 22 -11 41 -10 26 0 36 5 42 23 8 20 6 22 -22 20 -21 -2 -34 -9 -40 -23 -7 -18 -8 -18 -9 5 0 20 -2 22 -10 10 -9 -13 -11 -13 -20 0 -7 12 -10 8 -10 -15z"/> <path d="M225 671 c-29 -6 -30 -9 -33 -63 -2 -47 1 -61 18 -78 13 -13 20 -30 17 -41 -7 -26 2 -24 34 7 27 25 32 27 127 25 124 -3 134 5 130 88 l-3 56 -45 7 c-56 8 -205 8 -245 -1z m215 -20 c0 -6 -45 -9 -102 -9 -74 1 -92 3 -63 8 61 11 165 11 165 1z m-90 -81 c65 0 121 3 123 8 3 4 -48 6 -114 4 -79 -2 -119 0 -119 7 0 7 41 11 114 11 63 0 117 3 119 8 3 4 -48 6 -114 4 -79 -2 -119 0 -119 7 0 7 39 11 109 11 60 0 116 3 125 6 13 5 16 -2 16 -40 l0 -46 -122 0 c-73 0 -117 -4 -109 -9 9 -6 10 -11 2 -15 -21 -13 -47 17 -45 54 2 62 7 76 11 33 l4 -43 119 0z"/> <path d="M2410 572 c-65 -66 -92 -98 -71 -86 33 19 188 181 180 188 -2 2 -51 -44 -109 -102z"/> <path d="M2758 633 c29 -2 74 -2 100 0 26 2 2 3 -53 3 -55 0 -76 -1 -47 -3z"/> <path d="M2663 603 c59 -2 155 -2 215 0 59 1 10 3 -108 3 -118 0 -167 -2 -107 -3z"/> <path d="M2668 563 c56 -2 148 -2 205 0 56 1 10 3 -103 3 -113 0 -159 -2 -102 -3z"/> <path d="M572 538 c-28 -28 2 -67 34 -43 15 11 17 18 8 31 -14 23 -27 27 -42 12z"/> <path d="M2618 533 c28 -2 76 -2 105 0 28 2 5 3 -53 3 -58 0 -81 -1 -52 -3z"/> <path d="M2828 533 c29 -2 74 -2 100 0 26 2 2 3 -53 3 -55 0 -76 -1 -47 -3z"/> <path d="M2240 429 c-80 -57 -212 -123 -310 -154 -111 -34 -138 -47 -85 -40 55 8 178 51 250 88 76 38 205 125 205 137 0 13 2 14 -60 -31z"/> <path d="M654 445 c-8 -21 2 -45 19 -45 21 0 38 25 31 44 -8 20 -43 21 -50 1z"/> <path d="M2380 440 c-42 -42 -10 -120 49 -120 34 0 71 37 71 72 0 31 -41 68 -76 68 -13 0 -33 -9 -44 -20z m65 -47 c2 -24 -2 -32 -18 -37 -27 -7 -47 10 -47 39 0 29 9 37 38 33 20 -2 25 -9 27 -35z"/> <path d="M2392 398 c2 -12 10 -23 18 -23 22 0 19 39 -3 43 -15 3 -18 -1 -15 -20z"/> <path d="M2602 448 c-17 -17 -15 -63 3 -78 9 -8 12 -22 8 -43 l-6 -32 29 27 c24 22 40 27 89 30 52 3 61 6 74 29 16 29 7 75 -9 49 -7 -10 -10 -11 -10 -2 0 7 -14 12 -37 12 -28 0 -34 3 -23 10 11 7 -3 10 -45 10 -34 0 -66 -5 -73 -12z m84 -14 c-3 -9 -6 -20 -6 -25 0 -6 -12 -9 -27 -7 -16 2 -26 8 -23 13 3 6 13 9 23 8 9 -2 17 4 17 12 0 8 5 15 11 15 6 0 8 -7 5 -16z m22 -59 c-9 -9 -78 -14 -78 -6 0 6 15 11 33 13 30 3 52 0 45 -7z"/> <path d="M380 419 c0 -14 5 -19 17 -17 26 5 29 38 4 38 -15 0 -21 -6 -21 -21z"/> <path d="M458 363 c17 -2 47 -2 65 0 17 2 3 4 -33 4 -36 0 -50 -2 -32 -4z"/> <path d="M618 363 c34 -2 90 -2 125 0 34 2 6 3 -63 3 -69 0 -97 -1 -62 -3z"/> <path d="M435 321 c22 -9 354 -5 363 4 3 3 -82 5 -189 4 -107 0 -185 -4 -174 -8z"/> <path d="M513 283 c54 -2 139 -2 190 0 51 1 7 3 -98 3 -104 0 -146 -2 -92 -3z"/> <path d="M1663 218 c-46 -6 -81 -13 -79 -17 6 -9 174 7 195 19 20 12 1 11 -116 -2z"/> <path d="M670 110 c-10 -6 264 -10 770 -9 443 0 776 4 765 9 -28 12 -1516 12 -1535 0z"/> </g> </svg> 